<svg width="74" height="73" viewBox="0 0 74 73" fill="none" xmlns="http://www.w3.org/2000/svg">
<rect x="0.830566" y="0.630859" width="72.3364" height="72.3364" rx="17.4305" fill="#F563D3"/>
<path d="M19.1937 27.6622C19.2059 27.7307 19.2158 27.7992 19.2199 27.8683C19.2716 28.7548 19.9418 35.828 28.3677 44.4403C28.3677 44.4403 35.6462 51.8577 43.3066 53.4173C43.3397 53.4241 43.3723 53.4315 43.4054 53.4407C43.8693 53.5668 47.8125 54.5635 49.8452 52.525L52.741 49.6811C52.7672 49.6554 52.7945 49.6303 52.8224 49.6063C53.1113 49.358 55.1224 47.5 53.1107 45.5243C51.0745 43.5246 48.5077 41.0866 48.2171 40.8103C48.2031 40.7972 48.1897 40.784 48.1764 40.7703C48.0189 40.6094 46.5227 39.1617 44.7702 40.4844C44.7196 40.5226 44.672 40.5654 44.6266 40.6099L41.7913 43.4019C41.1559 44.0041 40.1469 43.9962 39.5209 43.3842L29.8342 33.9077C29.1838 33.2712 29.2006 32.2317 29.8714 31.6158L32.1383 29.5357C32.1383 29.5357 34.622 27.2774 31.9546 24.8383L27.9951 20.9497C27.9707 20.9257 27.9474 20.9012 27.9242 20.8755C27.6684 20.5924 25.7706 18.6538 23.5438 20.8116C23.4758 20.8772 23.402 20.9366 23.3235 20.9891C22.5679 21.4983 18.5967 24.3433 19.1937 27.6622Z" fill="white"/>
<path d="M45.8822 34.5894C46.4954 34.5891 47.0004 34.0893 46.9135 33.4822C46.8063 32.7325 46.5908 32.0004 46.2721 31.3092C45.798 30.2808 45.1069 29.3672 44.2462 28.6313C43.3855 27.8954 42.3756 27.3546 41.2861 27.046C40.5537 26.8386 39.797 26.7395 39.0398 26.75C38.4266 26.7585 38.0112 27.335 38.1062 27.9409C38.2012 28.5468 38.7723 28.9493 39.385 28.9751C39.8224 28.9934 40.2573 29.0629 40.6809 29.1829C41.462 29.404 42.1859 29.7917 42.8029 30.3193C43.4199 30.8468 43.9154 31.5017 44.2552 32.2389C44.4396 32.6388 44.5757 33.0577 44.6619 33.4868C44.7825 34.0881 45.2689 34.5898 45.8822 34.5894Z" fill="#F9A1E5"/>
<path d="M50.4677 34.716C51.2064 34.7738 51.8602 34.2205 51.8326 33.4801C51.7824 32.1333 51.4983 30.802 50.9897 29.5467C50.3127 27.8757 49.2564 26.385 47.9042 25.1924C46.5521 23.9997 44.9412 23.1378 43.1987 22.6748C41.8897 22.3269 40.5333 22.2112 39.1909 22.3296C38.4528 22.3946 37.9854 23.1124 38.135 23.8381C38.2846 24.5638 38.9953 25.0201 39.7353 24.9806C40.6666 24.9309 41.6028 25.027 42.5095 25.268C43.8499 25.6242 45.0891 26.2872 46.1293 27.2047C47.1694 28.1221 47.982 29.2688 48.5028 30.5543C48.8551 31.4238 49.0674 32.3407 49.1344 33.2709C49.1876 34.01 49.729 34.6582 50.4677 34.716Z" fill="#F9A1E5"/>
</svg>
