<svg width="38" height="39" viewBox="0 0 38 39" fill="none" xmlns="http://www.w3.org/2000/svg">
<rect y="0.15332" width="38" height="38" rx="12" fill="#03A903" fill-opacity="0.2"/>
<mask id="mask0_174_16745" style="mask-type:alpha" maskUnits="userSpaceOnUse" x="12" y="12" width="14" height="14">
<path d="M25.2997 13.0017C25.1129 12.8145 24.8592 12.7092 24.5947 12.7092C24.3302 12.7092 24.0766 12.8145 23.8897 13.0017L18.9997 17.8817L14.1097 12.9917C13.9229 12.8045 13.6692 12.6992 13.4047 12.6992C13.1402 12.6992 12.8866 12.8045 12.6997 12.9917C12.3097 13.3817 12.3097 14.0117 12.6997 14.4017L17.5897 19.2917L12.6997 24.1817C12.3097 24.5717 12.3097 25.2017 12.6997 25.5917C13.0897 25.9817 13.7197 25.9817 14.1097 25.5917L18.9997 20.7017L23.8897 25.5917C24.2797 25.9817 24.9097 25.9817 25.2997 25.5917C25.6897 25.2017 25.6897 24.5717 25.2997 24.1817L20.4097 19.2917L25.2997 14.4017C25.6797 14.0217 25.6797 13.3817 25.2997 13.0017Z" fill="black"/>
</mask>
<g mask="url(#mask0_174_16745)">
<rect x="7" y="7.29199" width="24" height="24" fill="white"/>
</g>
</svg>
