<svg width="149" height="7" viewBox="0 0 149 7" fill="none" xmlns="http://www.w3.org/2000/svg">
<path fill-rule="evenodd" clip-rule="evenodd" d="M49.8287 0.618345C33.5081 0.473293 17.1208 1.00339 1.32375 3.22926C1.0419 3.26881 0.924895 3.34661 0.901835 3.36441C0.76689 3.46991 0.752346 3.58199 0.769427 3.67429C0.779676 3.73033 0.848887 3.96703 1.22725 3.99143C1.48859 4.0079 3.34363 3.89253 4.05935 3.86286C7.4287 3.72374 10.7913 3.5253 14.1521 3.29585C21.7722 2.77763 29.382 2.32928 37.014 1.92116C41.2991 1.69171 45.5857 1.50183 49.8699 1.34623C60.176 1.43919 70.4566 1.80183 80.5451 2.17631C76.5351 2.36687 72.8507 2.56005 69.7956 2.68532C64.6438 2.89631 59.5013 3.14551 54.3597 3.47386C51.7181 3.64198 49.0798 3.82463 46.4432 4.04022C46.1512 4.06461 45.4858 4.08968 45.1638 4.11935C45.0271 4.1312 44.9281 4.15034 44.8836 4.16352C44.6052 4.24659 44.5702 4.41669 44.5669 4.5024C44.5651 4.55449 44.588 4.83865 45.0578 4.89404C66.8993 7.49309 89.6863 4.46945 111.606 6.99597C111.863 7.02563 112.104 6.88849 112.143 6.68938C112.181 6.49092 112.003 6.30499 111.746 6.27532C91.1007 3.89582 69.6861 6.44016 49.0149 4.5723C50.8212 4.43713 52.6285 4.31516 54.4373 4.19978C59.5696 3.8721 64.7025 3.62353 69.8459 3.41255C75.0216 3.20091 82.0183 2.78751 89.342 2.52708C95.6272 2.7974 101.909 3.10069 108.195 3.35781C110.847 3.46594 113.5 3.55562 116.151 3.66572C117.241 3.71056 120.045 3.89847 120.451 3.82858C120.767 3.77385 120.843 3.59913 120.862 3.51145C120.882 3.4165 120.87 3.29848 120.726 3.18574C120.682 3.15013 120.549 3.07629 120.275 3.01563C112.883 1.38118 100.779 1.40689 89.4428 1.80182C87.0044 1.69634 84.566 1.59612 82.1267 1.50579C76.5429 1.2981 70.8972 1.08975 65.2193 0.925583C81.2205 0.620317 97.2295 0.70801 113.243 0.928881C119.966 1.02185 138.089 1.58227 145.226 2.07743C145.139 2.14664 145.088 2.24292 145.094 2.34775C145.106 2.54818 145.327 2.70377 145.588 2.69455C147.06 2.64181 147.912 2.57455 148.249 2.50532C148.459 2.46247 148.574 2.39389 148.626 2.34907C148.756 2.24094 148.78 2.12489 148.755 2.01477C148.738 1.94621 148.698 1.87105 148.606 1.80182C148.544 1.75435 148.394 1.68184 148.138 1.63238C145.332 1.09371 121.265 0.311095 113.26 0.200329C92.1051 -0.0910915 70.9589 -0.150425 49.8287 0.618345ZM114.553 2.87189C110.419 2.43873 105.573 2.28642 100.518 2.29631C103.093 2.41169 105.669 2.52444 108.245 2.62994C110.347 2.7163 112.45 2.79015 114.553 2.87189ZM30.3318 1.5592C24.9084 1.86775 19.4909 2.20138 14.0692 2.5706C13.4432 2.61279 12.818 2.65433 12.1919 2.6952C18.1876 2.12819 24.2457 1.76754 30.3318 1.5592Z" fill="#03A903"/>
</svg>
