<svg width="430" height="875" viewBox="0 0 430 875" fill="none" xmlns="http://www.w3.org/2000/svg">
<path d="M86.4611 320.117C90.5463 303.406 94.3774 286.61 98.7218 269.965C99.292 267.777 99.9582 265.675 100.679 263.521C101.086 262.302 101.804 257.787 102.882 256.922C103.95 256.065 107.133 256.938 108.58 256.736C110.454 256.475 111.164 256.387 112.906 255.263C115.954 253.293 114.622 254.111 115.488 250.924C116.413 247.523 118.989 245.162 120.444 241.856C122.191 237.89 122.976 233.085 117.105 232.5C111.892 231.98 110.132 237.131 108.108 240.771C107.102 239.767 104.393 237.791 104.331 236.557C104.261 235.174 107.092 230.993 108.126 230.082C109.515 228.86 112.952 228.749 114.01 227.26C114.725 226.253 115.021 220.713 114.671 219.556C114.197 217.982 111.711 217.138 111.332 215.704C110.959 214.291 113.258 211.166 114.01 209.696C116.301 205.214 117.193 202.434 117.966 197.464C119.42 188.108 118.525 178.328 115.988 169.101C115.462 167.186 114.461 164.962 113.512 163.235C112.113 160.69 110.544 160.936 108.852 158.764C106.197 155.36 107.688 147.441 107.716 143.317C107.735 140.565 108.65 136.291 107.838 133.664C107.208 131.626 105.114 131.776 104.17 129.98C103.038 127.821 104.87 123.904 104.17 121.546C103.32 118.683 102.364 118.975 99.0043 117.696C100.79 114.046 103.919 109.826 103.865 105.879C103.802 101.154 101.252 96.0076 100.399 91.3193C99.3387 85.505 99.0147 82.1499 95.7797 77.0889C93.4702 73.475 92.3633 72.5223 92.2907 68.1784C92.1793 61.4838 92.0652 54.7919 91.9538 48.0974C91.8475 41.7238 93.6205 42.5341 99.3439 39.2593C106.534 35.1432 114.059 26.9757 118.194 19.6805C119.466 17.4335 119.785 14.5858 121.18 12.4139C122.919 9.70085 121.633 10.506 124.946 10.0995C129.946 9.48339 135.141 10.5008 140.17 10.0995C145.214 9.69826 150.167 8.09323 155.188 7.44604C159.75 6.85839 162.151 7.63243 165.772 4.56216C167.304 3.26519 169.253 0.880939 171.143 0.269992C172.364 -0.1235 177.377 -0.136444 177.97 0.56511C179.072 1.86726 177.11 5.77629 178.1 7.18716C179.248 8.81549 184.316 7.69197 185.464 9.32289C186.382 10.625 186.179 20.395 185.594 22.3806C183.657 28.9638 175.643 26.3492 175.267 34.0947C175.018 39.2076 178.74 43.9631 180.92 48.421C182.188 51.0123 182.996 54.9705 185.842 56.3037C187.183 56.9302 193.012 57.5023 194.326 57.0105C198.202 55.5608 201.504 49.5678 205.097 47.0101C206.152 46.2593 207.598 44.9701 208.842 44.5715C210.063 44.178 212.02 45.0478 213.15 44.4912C214.838 43.6628 215.898 39.9738 216.834 38.1047C217.5 40.3 218.011 44.9831 219.633 46.293C223.495 49.4073 226.116 46.8133 228.454 44.1055C232.13 39.8496 240.321 39.0807 245.767 40.9006C249.144 42.0293 249.621 43.8544 251.27 46.4587C252.942 49.0992 253.25 49.9328 256.869 50.3884C262.141 51.0563 261.382 48.7963 265.475 46.9764C269.609 45.1384 270.317 48.3303 273.409 49.6506C278.026 51.6207 286.121 49.1303 290.947 48.786C294.903 48.5038 296.515 48.6203 299.649 46.2697C303.281 43.5489 303.664 43.6292 303.664 39.1532C303.664 37.7345 302.661 29.4039 303.664 28.4435C306.539 25.6916 312.651 30.7216 315.575 31.3015C318.411 31.8632 322.439 31.273 325.295 30.8976C327.877 30.5585 330.759 28.0241 332.895 27.9464C335.166 27.8662 337.478 30.7501 339.801 31.2057C341.771 31.5914 347.624 31.3636 349.272 30.3488C352.038 28.648 351.499 24.7053 355.558 25.3654C358.352 25.8185 359.706 29.4945 362.139 30.499C364.706 31.5578 370.735 31.5241 373.521 31.2963C374.553 31.2135 375.393 31.5836 376.261 31.1617C377.469 30.5766 377.85 28.8706 379.185 28.5211C381.733 27.8507 384.823 30.675 384.279 32.9893C383.664 35.6014 377.791 37.0149 380.634 40.8954C382.057 42.837 387.114 42.1406 388.525 44.0822C389.828 45.8762 388.613 53.0704 388.525 55.32C388.346 59.8089 386.946 58.6414 384.88 62.6048C384.224 63.8655 383.371 68.8463 384.097 70.283C384.219 70.5238 386.376 71.5671 386.884 72.1677C387.734 73.1695 387.832 74.7771 388.851 75.5253C392.724 78.3755 395.487 75.7117 398.963 74.5545C404.137 72.8304 411.465 73.3533 416.509 75.6496C420.656 77.5393 428.407 82.6884 429.602 86.7864C431.738 94.1022 424.723 100.08 421.864 106.013C420.568 108.7 420.936 111.123 420.008 114.015C419.034 117.062 416.908 119.873 414.967 122.366C413.038 124.844 411.068 126.731 408.46 128.548C405.047 130.927 403.999 131.028 402.421 134.647C400.472 139.118 399.881 136.869 395.541 139.253C392.895 140.708 391.99 143.993 389.217 145.155C386.679 146.219 382.28 144.472 380.16 145.701C378.916 146.424 378.7 149.23 377.653 150.25C376.736 151.146 375.336 151.322 374.172 151.956C369.561 154.464 366.022 161.265 362.694 165.601C360.462 168.511 360.234 169.228 360.234 172.808C360.234 177.768 360.346 177.898 356.198 180.572C354.329 181.778 351.292 184.528 349.166 184.763C346.494 185.061 343.476 182.804 340.48 183.044C337.491 183.285 333.748 183.792 335.132 187.471C336.2 190.311 340.037 189.809 342.714 191.39C345.068 192.781 347.046 194.559 347.691 197.171C348.487 200.386 346.802 203.855 348.497 206.62C350.509 209.9 352.409 209.711 353.376 213.584C353.676 214.79 354.607 217.783 354.291 218.914C353.961 220.092 351.906 220.719 351.743 221.881C351.595 222.929 352.995 224.281 352.922 225.378C352.831 226.743 351.066 228.148 350.643 229.474C349.993 231.516 349.319 237.261 350.288 238.767C351.919 241.299 355.299 240.642 355.724 244.745C356.012 247.512 353.902 250.663 352.207 252.493C350.439 254.398 346.823 256.275 348.676 259.692C349.086 260.448 351.136 261.054 351.846 261.722C353.005 262.807 353.725 264.526 354.734 265.755C357.383 268.989 358.008 269.361 356.859 273.822C356.001 277.156 353.658 277.718 352.056 280.625C350.55 283.364 350.237 287.004 352.08 289.437C353.889 291.827 356.774 291.959 357.367 295.725C357.601 297.204 357.09 302.995 356.056 303.914C355.224 304.654 352.901 303.864 352.121 304.651C351.406 305.371 351.763 309.645 351.701 310.512C351.395 314.789 352.196 314.685 348.189 315.39C345.293 315.9 340.488 315.488 338.038 317.046C336.739 317.872 336.309 319.622 334.907 320.127C333.642 320.585 331.576 319.555 330.666 320.412C329.204 321.792 329.526 327.57 329.489 329.625C329.437 332.6 329.007 335.126 330.702 337.379C332.729 340.071 336.498 340.599 339.083 342.484C341.628 344.34 341.664 346.222 343.064 348.132C344.905 350.641 347.24 351.133 347.898 353.97C348.686 357.361 347.681 361.998 347.587 365.485C347.479 369.539 347.93 374.041 347.248 378.04C346.836 380.455 346.149 382.024 344.467 384.144C343.653 385.17 342.618 386.042 341.664 386.948C340.889 387.686 340.138 388.519 339.303 389.193C338.86 389.552 337.68 389.115 337.442 389.405C335.832 391.333 336.968 394.518 337.579 397.112C338.455 400.837 338.087 401.228 336.141 404.526C332.937 409.952 335.902 416.68 328.751 417.413C322.724 418.029 316.866 421.886 311.163 420.237C305.865 418.704 300.16 418.137 294.996 419.75C293.016 420.369 293.793 420.918 291.969 420.959C290.061 421.001 288.171 419.106 286.256 418.992C283.311 418.816 280.364 421.355 277.37 421.342C274.277 421.329 273.764 418.966 271.328 418.588C269.264 418.27 262.647 420.734 261.734 422.906C260.28 426.365 264.534 428.826 267.009 430.061C270.042 431.576 271.792 433.194 274.264 435.588C278.526 439.715 284.076 442.575 288.148 446.611C289.159 447.613 289.48 448.863 290.605 449.863C291.523 450.678 293.475 451.085 294.066 452.102C295.121 453.925 293.729 459.734 293.638 461.828C293.498 465.002 292.09 470.459 293.127 473.439C293.928 475.743 297.319 476.892 299.631 478.254C301.925 479.605 304.307 480.861 304.017 483.664C303.934 484.467 302.236 485.875 301.94 486.999C301.725 487.817 301.368 493.191 301.94 494.012C302.555 494.889 304.851 494.845 305.984 495.389C307.822 496.269 309.302 497.817 310.826 499.179C313.105 501.219 315.282 502.974 315.961 506.243C316.767 510.121 315.064 512.614 320.744 512.612C322.218 512.612 323.478 511.369 324.953 511.084C326.874 510.712 326.931 510.95 329.103 511.413C335.073 512.684 339.928 518.323 340.495 524.313C340.913 528.729 338.144 528.874 336.364 532.361C335.138 534.761 336.024 537.197 334.321 539.247C333.266 540.519 330.959 540.873 329.982 542.201C329.217 543.242 328.867 545.484 328.468 546.734C327.517 549.727 327.309 553.905 325.785 556.538C323.18 561.029 315.59 561.677 312.882 566.735C312.223 567.967 312.472 570.074 311.37 570.696C310.458 571.211 308.657 570.44 307.677 570.867C305.668 571.744 301.953 576.163 300.709 578.066C298.827 580.942 298.988 583.984 298.988 587.215C298.988 588.499 298.726 590.179 298.988 591.408C299.431 593.495 301.069 594.197 301.632 596.133C303.244 601.678 294.605 605.825 293.329 610.739C292.383 614.376 294.234 616.662 294.97 619.846C295.665 622.859 293.993 625.598 295.253 628.891C296.341 631.736 298.244 632.64 300.914 634.62C303.903 636.839 305.738 639.088 308.161 641.936C312.84 647.434 315.927 650.976 317.734 658.188C319.004 663.257 318.621 673.322 326.337 670.922C329.059 670.076 330.99 668.315 334.077 667.565C336.724 666.923 342.24 665.701 344.669 667.174C345.54 667.702 346.942 668.414 345.724 670.345C344.902 671.647 343.062 669.99 341.758 670.92C340.182 672.041 341.887 677.594 341.296 679.664C340.711 681.723 338.785 683.139 337.973 685.166C336.993 687.612 338.02 694.343 336.13 695.976C334.616 697.284 329.515 695.673 327.807 695.138C325.951 694.552 320.992 691.415 319.157 692.538C317.467 693.571 318.076 697.812 315.572 698.925C312.454 700.312 307.138 698.306 303.755 698.925C300.554 699.51 299.903 701.006 298.959 704.729C298.125 708.019 298.944 711.499 298.879 714.934C298.755 721.667 295.375 725.563 290.831 730.166C288.944 732.079 287.215 734.238 285.214 736.022C284.223 736.905 282.767 738.308 281.569 738.75C280.504 739.147 278.593 738.502 277.792 739.095C276.75 739.866 275.568 745.321 275.384 746.633C274.892 750.112 276.517 754.107 275.942 757.483C275.185 761.915 268.588 765.844 266.641 770.758C263.632 778.351 267.999 780.73 271.245 787.026C272.45 789.366 273.129 792.545 273.412 795.149C273.596 796.86 272.771 799.462 273.412 801.052C273.946 802.38 275.581 803.076 276.364 804.316C279.76 809.698 277.051 815.316 277.248 821.107C277.403 825.616 278.567 826.802 280.698 830.455C281.953 832.603 283.689 836.305 282.567 838.853C281.344 841.63 278.925 840.673 275.82 840.673C272.714 840.673 269.228 840.23 266.211 840.781C260.438 841.838 254.52 845.684 249.979 849.21C247.371 851.235 244.546 853.256 242.361 855.762C240.57 857.815 239.872 860.492 237.508 861.308C234.696 862.278 219.553 862.172 226.92 869.416C224.963 870.228 224.652 870.945 223.449 872.185C221.002 874.71 223.597 873.899 220.032 874.572C216.396 875.261 210.589 875.194 207.258 873.809C199.894 870.744 194.619 862.918 187.685 858.851C184.197 856.803 180.949 857.072 176.786 856.808C172.133 856.513 167.161 855.496 162.679 856.948C160.165 857.764 159.408 858.804 157.163 858.072C155.305 857.466 153.91 855.273 152.244 854.362C148.353 852.237 146.645 855.825 142.588 856.146C138.949 856.433 139.236 856.096 136.891 854.181C135.094 852.713 134.107 852.697 132.217 851.478C129.98 850.033 130.384 848.17 127.134 848.299C124.493 848.403 123.78 850.072 121.885 852.216C119.44 848.887 119.111 848.737 120.41 844.846C117.763 844.45 116.579 843.771 114.917 845.255C114.318 845.791 111.713 849.298 111.205 850.122C110.428 851.385 110.599 854.429 109.92 855.177C109.111 856.068 104.059 855.718 102.789 855.835C98.4859 856.231 92.6044 855.957 88.4415 857.365C85.953 858.209 86.4844 858.706 84.5663 860.552C83.1613 861.903 79.8357 862.234 78.7859 863.891C77.0051 866.705 79.395 866.506 76.4141 868.623C73.3554 870.798 72.6607 870.498 70.5844 868.96C69.939 868.481 66.7585 864.802 66.5407 864.282C65.2032 861.103 67.4169 860.122 68.9825 858.186C70.587 856.2 70.9525 854.323 72.2978 852.102C73.485 850.145 75.7998 848.964 77.0958 847.075C80.3852 842.272 79.001 839.839 75.3954 835.997C77.3498 834.827 78.3348 834.027 79.6905 832.489C80.3541 831.736 80.4137 830.628 81.1188 829.94C82.1997 828.883 84.3148 828.839 85.3413 827.739C86.5363 826.458 87.288 824.643 86.6607 822.427C85.9764 820.009 83.7472 820.136 82.2956 818.011C79.8875 814.482 82.8503 810.651 85.3024 808.039C86.5103 806.752 88.8458 805.698 89.6857 804.158C90.7821 802.149 90.6551 798.181 91.0154 795.954C91.3991 793.593 91.3809 790.407 92.2752 788.175C92.918 786.568 94.9425 785.245 95.2691 783.632C96.4511 777.773 91.8812 775.583 90.103 771.446C89.4265 769.872 89.5198 767.134 89.1958 765.373C88.4803 761.482 88.413 761.436 89.6209 758.267C90.2741 756.553 90.6318 754.236 91.4094 752.608C92.7781 749.737 92.8999 750.49 96.6092 750.224C99.6031 750.009 107.141 747.855 102.646 744.422C99.0121 741.647 93.8719 744.72 90.4244 741.645C86.0852 737.774 90.7899 735.52 92.2545 731.515C93.4857 728.147 93.7968 720.062 93.0865 716.531C91.9901 711.064 88.1019 712.298 84.3304 709.798C81.9379 708.208 81.2173 706.453 81.422 703.836C81.7227 699.96 82.3941 701.7 85.5098 699.735C92.1404 695.554 95.0565 684.2 95.2535 676.895C95.5412 666.198 94.0663 655.328 93.8434 644.631C93.7423 639.728 94.5148 634.781 91.8293 630.615C88.8977 626.069 85.0484 621.945 82.0364 617.361C86.3263 619.075 89.1647 622.735 93.2913 624.309C95.6372 625.202 98.3407 625.181 100.731 625.961C104.367 627.144 104.069 629.722 106.84 631.325C107.805 631.884 111.931 631.475 112.875 629.953C114.573 627.214 110.734 625.976 109.259 624.91C105.319 622.067 105.58 616.879 105.233 612.132C105.044 609.551 105.573 607.267 102.631 606.33C99.6497 605.38 99.7327 607.042 99.2557 608.971C98.701 611.215 100.541 616.24 99.2557 618.068C98.6233 618.968 95.1861 620.211 93.7294 619.38C91.9175 618.347 91.1087 615.207 88.8847 613.905C86.8214 612.698 84.9318 611.898 82.3915 612.354C79.7268 612.833 78.69 614.319 76.9947 616.131C74.8407 618.433 73.0755 619 70.5767 620.863C68.7077 622.256 67.7253 624.438 65.6465 625.324C63.5521 626.214 59.9905 626.088 57.6835 626.204C51.9057 626.497 46.0061 626.204 40.2205 626.204C40.6715 622.973 40.8737 619.605 41.5865 616.424C42.079 614.231 43.6576 611.746 43.5177 609.61C43.0822 602.936 35.7128 598.913 34.9015 591.812C34.6241 589.392 34.6734 586.49 36.8067 584.46C38.6471 582.71 41.6747 583.298 44.2253 584.131C47.2321 585.115 49.5236 587.373 52.6885 587.898C56.7918 588.579 57.1469 586.663 59.8324 583.445C61.6002 581.325 63.2462 579.275 64.83 577.025C67.9379 572.606 67.1292 572.92 72.0257 572.956C74.1175 572.971 77.3343 572.733 78.4281 571.061C80.2297 568.312 79.1151 563.898 77.8994 561.35C76.6733 558.78 74.8199 556.556 73.5057 554.037C72.1656 551.472 71.7042 545.414 68.1815 545.427C65.7346 545.437 65.071 549.947 63.0362 551.635C60.6463 553.62 56.5508 554.154 54.5834 556.522C52.139 559.468 52.5537 561.617 49.2592 563.937C46.5789 565.821 43.7665 567.512 41.1848 569.536C36.5656 573.16 32.7449 577.691 28.1154 581.395C25.7151 583.313 24.1598 584.245 20.6268 583.233C19.1907 582.822 18.0502 581.315 16.5209 580.797C14.4057 580.08 11.6995 580.515 9.52476 580.515C4.67492 580.515 4.62827 581.62 4.06319 577.414C3.80657 575.511 4.72417 572.865 4.06319 571.097C3.47996 569.539 2.62716 570.033 1.51255 568.607C-3.81941 561.772 6.55679 561.847 7.86062 555.686C8.37127 553.276 7.34998 549.732 8.24426 547.607C9.13853 545.479 12.3527 545.655 13.4466 543.669C14.4964 541.764 13.7706 537.166 13.8769 534.999C14.0998 530.523 14.3202 526.05 14.5431 521.574C14.6286 519.837 14.1439 516.319 14.8852 514.68C15.9972 512.221 19.7377 510.952 20.8004 508.478C21.928 505.85 21.0856 501.907 22.0706 498.928C23.0893 495.844 25.7721 492.287 26.4616 489.269C27.7265 483.747 23.5662 475.647 20.5827 471.158C19.1674 469.027 14.7919 464.564 19.31 462.354C21.0026 461.525 22.4153 463.249 23.7373 463.581C26.1998 464.199 27.1848 464.619 30.0024 464.194C32.7008 463.788 32.4727 464.101 34.0953 462.553C35.3603 461.347 35.2877 458.693 37.3899 458.913C39.3703 459.12 38.292 460.754 39.5621 461.696C40.7959 462.615 43.6706 462.721 45.1377 463.089C44.8811 460.539 44.6919 458.812 43.6991 456.575C42.4704 453.8 40.2568 451.885 42.8463 448.812C44.2694 447.124 47.6339 446.588 49.565 445.4C52.0146 443.896 54.9981 441.641 56.9759 439.57C58.6063 437.864 60.1331 435.407 61.0299 433.209C62.5022 429.598 61.5432 430.243 60.102 426.217C58.4612 421.625 59.7028 418.899 61.3488 414.537C65.4417 403.69 69.3687 392.77 73.7468 382.035C77.8683 371.933 83.1847 361.242 84.6155 350.33C85.2299 345.642 86.2537 338.212 84.2734 333.832C82.884 330.756 79.2602 329.126 80.1908 325.136C80.8155 322.459 83.7938 321.649 86.4585 320.114L86.4611 320.117Z" fill="white" fill-opacity="0.05"/>
</svg>
