<svg width="279" height="14" viewBox="0 0 279 14" fill="none" xmlns="http://www.w3.org/2000/svg">
<path fill-rule="evenodd" clip-rule="evenodd" d="M152.343 6.14241C120.16 6.61984 87.9802 7.57543 55.9376 9.03472C38.4362 9.8316 18.1055 9.84264 1.13496 12.356C-0.201936 12.5543 0.0676789 13.1377 0.097194 13.1951C0.156249 13.3153 0.403049 13.7137 1.47412 13.7278C1.55819 13.7292 2.13191 13.6916 2.35481 13.6766C7.35364 13.3387 12.3376 12.9485 17.3402 12.6281C34.6208 11.5181 51.9464 10.661 69.3017 9.89795C92.3398 8.88455 115.574 8.29079 138.676 7.80587C151.326 7.53813 164.278 7.75061 176.97 7.26626C181.62 7.23196 186.276 7.20814 190.933 7.19301C210.405 7.1337 229.856 7.39386 249.304 7.78492C255.555 7.91055 260.329 8.05541 266.456 8.13976C268.785 8.17233 272.48 8.18445 275.046 8.19146C275.419 8.19318 276.355 8.1922 276.76 8.19201C276.815 8.19524 276.87 8.19499 276.925 8.19473C277.122 8.19205 277.221 8.18633 277.239 8.1845C278.631 8.08016 278.501 7.45602 278.46 7.35848C278.452 7.33758 278.245 6.80977 277.053 6.79623C276.874 6.79359 275.584 6.79626 275.087 6.79513C272.539 6.78803 268.873 6.77577 266.563 6.74486C260.451 6.66045 255.687 6.51553 249.447 6.38984C229.955 5.99899 210.456 5.73732 190.938 5.79685C188.657 5.80419 186.379 5.81326 184.106 5.8258C183.937 5.72189 183.677 5.62711 183.264 5.57846C182.887 5.53313 180.182 5.50064 179.137 5.46372C171.584 5.20465 171.807 5.21581 163.494 5.0127C150.903 4.70426 148.988 4.62955 135.898 4.53639C119.876 4.42225 103.851 4.446 87.8267 4.51686C110.837 3.87706 134.004 3.83859 156.984 3.56891C167.375 3.44802 177.763 3.26956 188.155 3.2586C191.722 3.25562 195.286 3.30153 198.854 3.30554C199.592 3.30726 201.49 3.35933 201.764 3.32836C202.67 3.22807 202.862 2.90429 202.916 2.74697C202.945 2.65609 203.074 2.11797 201.724 1.9359C195.7 1.12683 184.592 1.21272 178.743 1.07471C145.988 0.305312 113.173 0.719422 80.4106 1.53642C66.884 1.8729 53.4018 2.32612 39.9317 3.01835C35.2212 3.25886 30.4995 3.46802 25.8076 3.78349C25.0476 3.83422 23.3336 3.91039 22.5043 3.98588C22.0768 4.0263 21.7737 4.08359 21.6313 4.12091C20.9669 4.30382 20.8548 4.56963 20.852 4.74765C20.849 4.87681 20.9207 5.35987 22.2664 5.47739C35.9539 6.6916 50.8356 6.12184 64.59 6.03907C88.3377 5.89837 112.089 5.76287 135.831 5.93284C143.862 5.99069 147.671 6.04069 152.343 6.14241ZM159.163 2.14675C132.961 1.882 106.732 2.27703 80.5379 2.93021C67.0661 3.26643 53.6387 3.71764 40.2234 4.40611C38.0856 4.51574 35.9514 4.61835 33.8172 4.72796C44.0644 5.03008 54.623 4.70422 64.5761 4.643L71.4076 4.60357C71.3525 4.53751 71.3156 4.46614 71.3043 4.3929C71.2403 4.00927 71.8418 3.66958 72.6458 3.6361C100.611 2.48936 128.91 2.50155 156.937 2.173C157.679 2.16424 158.421 2.15551 159.163 2.14675Z" fill="white"/>
</svg>
