<svg width="24" height="25" viewBox="0 0 24 25" fill="none" xmlns="http://www.w3.org/2000/svg">
<g clip-path="url(#clip0_213_5426)">
<path d="M7.00999 10.4999C7.09073 10.4972 7.16965 10.4752 7.24013 10.4357C7.3106 10.3962 7.37056 10.3404 7.41499 10.2729C7.4604 10.2042 7.48903 10.1257 7.49858 10.0439C7.50813 9.96212 7.49834 9.87921 7.46999 9.80188C7.32599 9.40588 6.67399 9.40588 6.53099 9.80188L6.52099 9.82888C6.49504 9.90518 6.48776 9.98659 6.49976 10.0663C6.51177 10.146 6.54271 10.2216 6.58999 10.2869C6.63836 10.3529 6.70159 10.4065 6.77455 10.4435C6.84752 10.4805 6.92818 10.4998 7.00999 10.4999Z" fill="white"/>
<path d="M17.407 20.291C17.4534 20.2265 17.4836 20.1517 17.4951 20.073C17.5066 19.9944 17.499 19.9141 17.473 19.839L10.973 0.839C10.9394 0.7402 10.8757 0.654391 10.7909 0.593598C10.7061 0.532806 10.6044 0.500077 10.5 0.5H2.5C1.8372 0.500794 1.20178 0.764441 0.73311 1.23311C0.264441 1.70178 0.000793929 2.3372 0 3L0 18C0 19.378 1.122 20.5 2.5 20.5H17C17.0796 20.5001 17.158 20.4811 17.2288 20.4448C17.2996 20.4084 17.3607 20.3557 17.407 20.291ZM4.029 13.832L6.529 6.832C6.671 6.436 7.33 6.436 7.471 6.832L9.971 13.832C10.0151 13.9568 10.0081 14.094 9.95151 14.2137C9.89495 14.3333 9.79342 14.4258 9.669 14.471C9.54405 14.5151 9.40674 14.5081 9.28691 14.4516C9.16707 14.395 9.07439 14.2935 9.029 14.169L8.195 11.833C8.1605 11.7356 8.0967 11.6514 8.01236 11.5917C7.92802 11.5321 7.82729 11.5001 7.724 11.5H6.276C6.17283 11.5 6.07219 11.5319 5.98786 11.5913C5.90354 11.6508 5.83966 11.7348 5.805 11.832L4.97 14.168C4.92458 14.2923 4.83212 14.3937 4.71256 14.4504C4.59301 14.5071 4.45596 14.5145 4.331 14.471C4.20658 14.4258 4.10505 14.3333 4.04849 14.2137C3.99193 14.094 3.98493 13.9568 4.029 13.832ZM16.312 13.126C16.3769 13.1742 16.4288 13.2378 16.463 13.311C16.562 13.556 16.773 13.874 17.127 14.31C17.1738 14.3681 17.2331 14.415 17.3004 14.4472C17.3677 14.4794 17.4414 14.4961 17.516 14.496H17.532C17.6091 14.4934 17.6845 14.4731 17.7525 14.4367C17.8204 14.4003 17.8791 14.3487 17.924 14.286C18.4 13.616 18.828 12.877 19.13 12.206C19.1637 12.1297 19.1778 12.0462 19.1712 11.963C19.1646 11.8799 19.1374 11.7997 19.092 11.7297C19.0467 11.6596 18.9847 11.602 18.9115 11.5619C18.8384 11.5218 18.7564 11.5005 18.673 11.5H16.377C16.2975 11.5001 16.2193 11.5191 16.1486 11.5554C16.078 11.5918 16.017 11.6444 15.9708 11.709C15.9245 11.7736 15.8943 11.8483 15.8827 11.9269C15.8711 12.0055 15.8784 12.0858 15.904 12.161L16.157 12.902C16.187 12.99 16.241 13.067 16.312 13.126Z" fill="white"/>
<path d="M21.5 4.5H13.982C13.9026 4.50006 13.8243 4.51905 13.7536 4.5554C13.683 4.59175 13.622 4.64442 13.5758 4.70903C13.5295 4.77364 13.4994 4.84835 13.4877 4.92695C13.4761 5.00555 13.4834 5.08578 13.509 5.161L15.219 10.161C15.289 10.364 15.479 10.5 15.692 10.5H16.5C16.6326 10.5 16.7598 10.4473 16.8536 10.3536C16.9473 10.2598 17 10.1326 17 10C17 9.86739 17.0527 9.74021 17.1465 9.64645C17.2402 9.55268 17.3674 9.5 17.5 9.5C17.6326 9.5 17.7598 9.55268 17.8536 9.64645C17.9473 9.74021 18 9.86739 18 10C18 10.1326 18.0527 10.2598 18.1465 10.3536C18.2402 10.4473 18.3674 10.5 18.5 10.5H21.5C21.6326 10.5 21.7598 10.5527 21.8536 10.6464C21.9473 10.7402 22 10.8674 22 11C22 11.1326 21.9473 11.2598 21.8536 11.3536C21.7598 11.4473 21.6326 11.5 21.5 11.5H20.805C20.6979 11.5 20.5937 11.5345 20.5076 11.5982C20.4216 11.6619 20.3583 11.7516 20.327 11.854C20.024 12.843 19.335 14.096 18.483 15.207C18.41 15.3021 18.3736 15.4202 18.3804 15.5399C18.3872 15.6596 18.4367 15.7728 18.52 15.859C19.1087 16.4672 19.7146 17.0584 20.337 17.632C20.3854 17.6762 20.4247 17.7295 20.4525 17.7889C20.4803 17.8483 20.496 17.9126 20.4989 17.9781C20.5018 18.0436 20.4917 18.109 20.4693 18.1706C20.4468 18.2322 20.4124 18.2887 20.368 18.337C20.2768 18.4322 20.1524 18.4885 20.0207 18.4943C19.889 18.5001 19.7602 18.4548 19.661 18.368C19.497 18.218 19.149 17.895 18.722 17.48C18.6418 17.4005 18.537 17.3506 18.4247 17.3383C18.3125 17.3261 18.1994 17.3523 18.104 17.4127C18.0085 17.4731 17.9364 17.564 17.8993 17.6707C17.8623 17.7774 17.8625 17.8935 17.9 18L18.418 19.514C18.4956 19.7398 18.5181 19.9808 18.4837 20.217C18.4493 20.4532 18.359 20.6778 18.2203 20.872C18.0816 21.0663 17.8985 21.2246 17.6862 21.3339C17.474 21.4431 17.2387 21.5 17 21.5H12.75C12.6693 21.5001 12.5898 21.5197 12.5183 21.5571C12.4468 21.5946 12.3855 21.6488 12.3395 21.7151C12.2935 21.7814 12.2643 21.8579 12.2542 21.938C12.2442 22.0181 12.2538 22.0994 12.282 22.175L13.032 24.175C13.0676 24.2704 13.1316 24.3526 13.2152 24.4107C13.2988 24.4688 13.3982 24.4999 13.5 24.5H21.5C22.878 24.5 24 23.378 24 22V7C24 5.622 22.878 4.5 21.5 4.5Z" fill="white"/>
</g>
<defs>
<clipPath id="clip0_213_5426">
<rect width="24" height="24" fill="white" transform="translate(0 0.5)"/>
</clipPath>
</defs>
</svg>
