<svg width="16" height="4" viewBox="0 0 16 4" fill="none" xmlns="http://www.w3.org/2000/svg">
<path d="M14.5625 2.77612C14.5625 2.77612 11.2294 2.77612 9.09375 2.77612C8.38186 2.77621 7.27083 2.77637 7.27083 2.77637L1.80208 2.77612C1.56035 2.77612 1.32852 2.68009 1.15759 2.50915C0.986654 2.33822 0.890625 2.10639 0.890625 1.86466C0.890625 1.62292 0.986654 1.39109 1.15759 1.22016C1.32852 1.04923 1.56035 0.953199 1.80208 0.953199H7.27083H9.09375H14.5625C14.8042 0.953199 15.0361 1.04923 15.207 1.22016C15.3779 1.39109 15.474 1.62292 15.474 1.86466C15.474 2.10639 15.3779 2.33822 15.207 2.50915C15.0361 2.68009 14.8042 2.77612 14.5625 2.77612Z" fill="#03A903" stroke="#03A903"/>
</svg>
