<svg width="16" height="16" viewBox="0 0 16 16" fill="none" xmlns="http://www.w3.org/2000/svg">
<path d="M14.5625 8.77604H9.09375V14.2448C9.09375 14.4865 8.99772 14.7184 8.82679 14.8893C8.65586 15.0602 8.42403 15.1562 8.18229 15.1562C7.94056 15.1562 7.70872 15.0602 7.53779 14.8893C7.36686 14.7184 7.27083 14.4865 7.27083 14.2448V8.77604H1.80208C1.56035 8.77604 1.32852 8.68001 1.15759 8.50908C0.986654 8.33815 0.890625 8.10632 0.890625 7.86458C0.890625 7.62285 0.986654 7.39102 1.15759 7.22009C1.32852 7.04915 1.56035 6.95312 1.80208 6.95312H7.27083V1.48438C7.27083 1.24264 7.36686 1.01081 7.53779 0.839876C7.70872 0.668944 7.94056 0.572917 8.18229 0.572917C8.42403 0.572917 8.65586 0.668944 8.82679 0.839876C8.99772 1.01081 9.09375 1.24264 9.09375 1.48438V6.95312H14.5625C14.8042 6.95312 15.0361 7.04915 15.207 7.22009C15.3779 7.39102 15.474 7.62285 15.474 7.86458C15.474 8.10632 15.3779 8.33815 15.207 8.50908C15.0361 8.68001 14.8042 8.77604 14.5625 8.77604Z" fill="#03A903" stroke="#03A903"/>
</svg>
