<svg width="50" height="50" viewBox="0 0 50 50" fill="none" xmlns="http://www.w3.org/2000/svg">
<g filter="url(#filter0_d_89_1328)">
<rect x="7" y="7" width="36" height="36" rx="8" fill="black" fill-opacity="0.25" shape-rendering="crispEdges"/>
<path d="M16.1699 20.4395L24.9999 25.5494L33.7699 20.4694" stroke="#03A903" stroke-width="1.5" stroke-linecap="round" stroke-linejoin="round"/>
<path d="M25 34.6091V25.5391" stroke="#03A903" stroke-width="1.5" stroke-linecap="round" stroke-linejoin="round"/>
<g filter="url(#filter1_d_89_1328)">
<path d="M22.9301 15.48L17.5901 18.45C16.3801 19.12 15.3901 20.8 15.3901 22.18V27.83C15.3901 29.21 16.3801 30.89 17.5901 31.56L22.9301 34.53C24.0701 35.16 25.9401 35.16 27.0801 34.53L32.4201 31.56C33.6301 30.89 34.6201 29.21 34.6201 27.83V22.18C34.6201 20.8 33.6301 19.12 32.4201 18.45L27.0801 15.48C25.9301 14.84 24.0701 14.84 22.9301 15.48Z" stroke="#03A903" stroke-width="1.5" stroke-linecap="round" stroke-linejoin="round" shape-rendering="crispEdges"/>
</g>
<path d="M29.9998 26.2396V22.5797L20.5098 17.0996" stroke="#03A903" stroke-width="1.5" stroke-linecap="round" stroke-linejoin="round"/>
</g>
<defs>
<filter id="filter0_d_89_1328" x="0.2" y="0.2" width="49.6" height="49.6" filterUnits="userSpaceOnUse" color-interpolation-filters="sRGB">
<feFlood flood-opacity="0" result="BackgroundImageFix"/>
<feColorMatrix in="SourceAlpha" type="matrix" values="0 0 0 0 0 0 0 0 0 0 0 0 0 0 0 0 0 0 127 0" result="hardAlpha"/>
<feOffset/>
<feGaussianBlur stdDeviation="3.4"/>
<feComposite in2="hardAlpha" operator="out"/>
<feColorMatrix type="matrix" values="0 0 0 0 0.666667 0 0 0 0 0.12549 0 0 0 0 0.368627 0 0 0 0.2 0"/>
<feBlend mode="normal" in2="BackgroundImageFix" result="effect1_dropShadow_89_1328"/>
<feBlend mode="normal" in="SourceGraphic" in2="effect1_dropShadow_89_1328" result="shape"/>
</filter>
<filter id="filter1_d_89_1328" x="10.6401" y="10.25" width="28.73" height="29.502" filterUnits="userSpaceOnUse" color-interpolation-filters="sRGB">
<feFlood flood-opacity="0" result="BackgroundImageFix"/>
<feColorMatrix in="SourceAlpha" type="matrix" values="0 0 0 0 0 0 0 0 0 0 0 0 0 0 0 0 0 0 127 0" result="hardAlpha"/>
<feOffset/>
<feGaussianBlur stdDeviation="2"/>
<feComposite in2="hardAlpha" operator="out"/>
<feColorMatrix type="matrix" values="0 0 0 0 0.666667 0 0 0 0 0.12549 0 0 0 0 0.368627 0 0 0 1 0"/>
<feBlend mode="normal" in2="BackgroundImageFix" result="effect1_dropShadow_89_1328"/>
<feBlend mode="normal" in="SourceGraphic" in2="effect1_dropShadow_89_1328" result="shape"/>
</filter>
</defs>
</svg>
