<svg width="101" height="88" viewBox="0 0 101 88" fill="none" xmlns="http://www.w3.org/2000/svg">
<g filter="url(#filter0_d_509_1258)">
<path d="M61.3874 24.1943L65.4999 32.4193C66.054 33.5568 67.5415 34.6359 68.7957 34.8693L76.2332 36.0943C80.9874 36.8818 82.0957 40.3234 78.6832 43.7651L72.879 49.5693C71.9165 50.5318 71.3624 52.4276 71.6832 53.7984L73.3457 60.9734C74.6582 66.6318 71.6249 68.8484 66.6374 65.8734L59.6665 61.7318C58.4124 60.9734 56.3124 60.9734 55.0582 61.7318L48.0874 65.8734C43.0999 68.8193 40.0665 66.6318 41.379 60.9734L43.0415 53.7984C43.304 52.3984 42.7499 50.5026 41.7874 49.5401L35.9832 43.7359C32.5707 40.3234 33.679 36.8818 38.4332 36.0651L45.8707 34.8401C47.1249 34.6359 48.6124 33.5276 49.1665 32.3901L53.279 24.1651C55.5249 19.7318 59.1415 19.7318 61.3874 24.1943Z" fill="white"/>
</g>
<g filter="url(#filter1_d_509_1258)">
<path d="M39.8335 25.7715H22.3335C21.1377 25.7715 20.146 24.7798 20.146 23.584C20.146 22.3882 21.1377 21.3965 22.3335 21.3965H39.8335C41.0293 21.3965 42.021 22.3882 42.021 23.584C42.021 24.7798 41.0293 25.7715 39.8335 25.7715Z" fill="white"/>
</g>
<g filter="url(#filter2_d_509_1258)">
<path d="M31.0835 66.6035H22.3335C21.1377 66.6035 20.146 65.6118 20.146 64.416C20.146 63.2202 21.1377 62.2285 22.3335 62.2285H31.0835C32.2793 62.2285 33.271 63.2202 33.271 64.416C33.271 65.6118 32.2793 66.6035 31.0835 66.6035Z" fill="white"/>
</g>
<g filter="url(#filter3_d_509_1258)">
<path d="M25.2502 46.1875H22.3335C21.1377 46.1875 20.146 45.1958 20.146 44C20.146 42.8042 21.1377 41.8125 22.3335 41.8125H25.2502C26.446 41.8125 27.4377 42.8042 27.4377 44C27.4377 45.1958 26.446 46.1875 25.2502 46.1875Z" fill="white"/>
</g>
<defs>
<filter id="filter0_d_509_1258" x="14.0015" y="0.84375" width="86.6636" height="86.3535" filterUnits="userSpaceOnUse" color-interpolation-filters="sRGB">
<feFlood flood-opacity="0" result="BackgroundImageFix"/>
<feColorMatrix in="SourceAlpha" type="matrix" values="0 0 0 0 0 0 0 0 0 0 0 0 0 0 0 0 0 0 127 0" result="hardAlpha"/>
<feOffset/>
<feGaussianBlur stdDeviation="10"/>
<feComposite in2="hardAlpha" operator="out"/>
<feColorMatrix type="matrix" values="0 0 0 0 1 0 0 0 0 1 0 0 0 0 1 0 0 0 0.46 0"/>
<feBlend mode="normal" in2="BackgroundImageFix" result="effect1_dropShadow_509_1258"/>
<feBlend mode="normal" in="SourceGraphic" in2="effect1_dropShadow_509_1258" result="shape"/>
</filter>
<filter id="filter1_d_509_1258" x="0.145996" y="1.39648" width="61.875" height="44.375" filterUnits="userSpaceOnUse" color-interpolation-filters="sRGB">
<feFlood flood-opacity="0" result="BackgroundImageFix"/>
<feColorMatrix in="SourceAlpha" type="matrix" values="0 0 0 0 0 0 0 0 0 0 0 0 0 0 0 0 0 0 127 0" result="hardAlpha"/>
<feOffset/>
<feGaussianBlur stdDeviation="10"/>
<feComposite in2="hardAlpha" operator="out"/>
<feColorMatrix type="matrix" values="0 0 0 0 1 0 0 0 0 1 0 0 0 0 1 0 0 0 0.46 0"/>
<feBlend mode="normal" in2="BackgroundImageFix" result="effect1_dropShadow_509_1258"/>
<feBlend mode="normal" in="SourceGraphic" in2="effect1_dropShadow_509_1258" result="shape"/>
</filter>
<filter id="filter2_d_509_1258" x="0.145996" y="42.2285" width="53.125" height="44.375" filterUnits="userSpaceOnUse" color-interpolation-filters="sRGB">
<feFlood flood-opacity="0" result="BackgroundImageFix"/>
<feColorMatrix in="SourceAlpha" type="matrix" values="0 0 0 0 0 0 0 0 0 0 0 0 0 0 0 0 0 0 127 0" result="hardAlpha"/>
<feOffset/>
<feGaussianBlur stdDeviation="10"/>
<feComposite in2="hardAlpha" operator="out"/>
<feColorMatrix type="matrix" values="0 0 0 0 1 0 0 0 0 1 0 0 0 0 1 0 0 0 0.46 0"/>
<feBlend mode="normal" in2="BackgroundImageFix" result="effect1_dropShadow_509_1258"/>
<feBlend mode="normal" in="SourceGraphic" in2="effect1_dropShadow_509_1258" result="shape"/>
</filter>
<filter id="filter3_d_509_1258" x="0.145996" y="21.8125" width="47.2915" height="44.375" filterUnits="userSpaceOnUse" color-interpolation-filters="sRGB">
<feFlood flood-opacity="0" result="BackgroundImageFix"/>
<feColorMatrix in="SourceAlpha" type="matrix" values="0 0 0 0 0 0 0 0 0 0 0 0 0 0 0 0 0 0 127 0" result="hardAlpha"/>
<feOffset/>
<feGaussianBlur stdDeviation="10"/>
<feComposite in2="hardAlpha" operator="out"/>
<feColorMatrix type="matrix" values="0 0 0 0 1 0 0 0 0 1 0 0 0 0 1 0 0 0 0.46 0"/>
<feBlend mode="normal" in2="BackgroundImageFix" result="effect1_dropShadow_509_1258"/>
<feBlend mode="normal" in="SourceGraphic" in2="effect1_dropShadow_509_1258" result="shape"/>
</filter>
</defs>
</svg>
