<svg width="59" height="33" viewBox="0 0 59 33" fill="none" xmlns="http://www.w3.org/2000/svg">
<path fill-rule="evenodd" clip-rule="evenodd" d="M53.4553 15.0502C53.4445 14.7877 53.4466 14.5322 53.4575 14.2924C53.4942 13.5711 54.0781 13.5735 54.1235 13.5745C54.2186 13.577 54.6425 13.6078 54.7442 14.1702C54.7506 14.2037 54.7658 14.4466 54.7701 14.5402C54.7788 14.7398 54.7831 14.936 54.7593 15.1329C54.7809 15.4668 54.8285 15.8105 54.9193 16.1338C55.0512 16.611 55.2653 17.0515 55.6524 17.2861C56.3444 17.7082 57.2548 17.6911 58.016 17.7983C58.3339 17.843 58.5761 18.1475 58.5869 18.5149C58.5955 18.8827 58.3707 19.2035 58.0549 19.2703C57.1034 19.4724 56.0092 20.4658 55.3129 21.2658C55.0988 21.5117 54.8588 22.0971 54.5906 22.4721C54.3744 22.7725 54.1343 22.9739 53.9072 23.0538C53.8186 23.0849 53.3277 23.1981 53.1071 22.6146C53.0466 22.4507 52.8325 21.5926 52.813 21.4948C52.6963 20.9341 52.5298 20.4333 52.2032 19.9873C51.9199 19.6007 51.5761 19.2631 51.1631 19.0758C50.9965 19.0004 50.8235 18.943 50.6505 18.8839C50.59 18.8755 50.4192 18.8506 50.3586 18.827C50.2353 18.7799 50.1445 18.7059 50.0796 18.6321C49.9564 18.4926 49.8937 18.326 49.8828 18.1363C49.8742 18.0111 49.8893 17.8627 49.9672 17.698C50.0256 17.5811 50.1575 17.405 50.3954 17.2908C50.644 17.1714 51.1782 17.0579 51.2733 17.0284C51.9351 16.8238 52.5838 16.5127 53.092 15.9734C53.345 15.7037 53.4034 15.4129 53.4553 15.0502ZM53.8792 17.1617C54.1343 17.7691 54.5149 18.2803 55.0447 18.6023C55.2631 18.7362 55.501 18.8377 55.7475 18.9167C55.2393 19.3229 54.7679 19.7847 54.3938 20.2128C54.2727 20.3521 54.1408 20.5776 54.0002 20.8251C53.8359 20.1641 53.5937 19.5705 53.1958 19.0272C52.9601 18.7069 52.6941 18.4141 52.3978 18.1701C52.9341 17.9262 53.4423 17.6 53.8792 17.1617Z" fill="white"/>
<path fill-rule="evenodd" clip-rule="evenodd" d="M39.5731 27.8926C41.0977 26.2824 42.7606 25.0749 44.7717 24.477C45.1177 24.374 45.3253 23.9673 45.2366 23.5692C45.1458 23.1712 44.7933 22.9319 44.4452 23.0349C42.2222 23.6956 40.3797 25.0166 38.6951 26.7959C38.4313 27.0742 38.414 27.5457 38.6562 27.8484C38.8984 28.1511 39.3093 28.171 39.5731 27.8926Z" fill="white"/>
<path fill-rule="evenodd" clip-rule="evenodd" d="M35.3251 10.1017C36.0236 7.35679 37.3968 5.20926 39.5009 3.65864C39.8015 3.43666 39.8901 2.97531 39.6955 2.62943C39.503 2.28331 39.1008 2.18275 38.8002 2.40497C36.4215 4.15722 34.8688 6.58235 34.0795 9.68435C33.98 10.0789 34.1768 10.4928 34.5207 10.608C34.8645 10.7232 35.2256 10.4963 35.3251 10.1017Z" fill="white"/>
<path fill-rule="evenodd" clip-rule="evenodd" d="M10.7977 6.28453C10.3912 6.83923 10.0279 7.43515 9.71647 8.06832C9.53482 8.43356 9.21478 9.28423 9.26885 9.90026C9.30993 10.3618 9.50022 10.7373 9.88082 10.9588C10.4885 11.3133 10.9751 11.2699 11.3492 11.0556C11.7081 10.8505 11.9936 10.4507 12.1709 9.91069C12.4866 8.94654 12.4499 7.48903 12.2898 6.61105C12.7223 6.10477 13.1959 5.64442 13.6998 5.23374C17.575 2.0796 23.2602 3.25802 27.6349 7.9742C29.1681 9.62638 29.8969 13.0998 30.2796 16.8434C30.883 22.7177 30.5391 29.2785 30.4915 31.2006C30.4807 31.7063 30.5283 32.0063 30.5499 32.0661C30.671 32.3966 30.8873 32.4835 31.0365 32.5158C31.2463 32.5605 31.4128 32.5133 31.549 32.4314C31.7307 32.3221 31.882 32.1304 31.9512 31.832C31.9858 31.6795 31.9966 31.4677 31.9923 31.2415C31.988 31.1077 31.9599 30.9617 31.9837 30.8659C32.1523 30.1922 32.3556 29.534 32.5524 28.8715C33.2141 26.643 34.0726 24.5549 35.022 22.4689C38.0473 15.8368 40.9667 8.82712 45.9252 3.77424C46.1934 3.50136 46.2193 3.03034 45.9815 2.7227C45.7436 2.4153 45.3327 2.38724 45.0646 2.66012C39.987 7.83318 36.9682 14.9879 33.8737 21.7781C33.1536 23.3558 32.4875 24.9357 31.9145 26.5728C31.9664 22.8768 31.8885 17.8684 31.1727 13.7347C30.6645 10.7869 29.8147 8.27813 28.5237 6.88816C23.6429 1.62671 17.2722 0.49942 12.9494 4.01831C12.5234 4.36444 12.119 4.74236 11.7363 5.15006C9.43969 0.545118 4.63247 -1.28186 0.378848 0.947113C0.0544741 1.11794 -0.0904086 1.56016 0.0588033 1.93409C0.208015 2.30803 0.592932 2.47314 0.917306 2.30231C4.66707 0.337775 8.91419 2.07066 10.7977 6.28453ZM11.1307 8.26298C11.0313 8.43903 10.9361 8.61879 10.8453 8.80229C10.7804 8.9309 10.6831 9.15486 10.6161 9.39422C10.5945 9.4774 10.5772 9.60826 10.5685 9.68821C10.6485 9.73191 10.7134 9.75476 10.7718 9.72174C10.8669 9.66686 10.908 9.53004 10.9556 9.38528C11.0615 9.06274 11.1156 8.66125 11.1307 8.26298Z" fill="white"/>
</svg>
